<?xml version="1.0" encoding="utf-8"?>
<!-- Generator: Adobe Illustrator 25.0.0, SVG Export Plug-In . SVG Version: 6.00 Build 0)  -->
<svg version="1.1" id="图层_1" xmlns="http://www.w3.org/2000/svg" xmlns:xlink="http://www.w3.org/1999/xlink" x="0px" y="0px"
	 viewBox="0 0 1024 1024" style="enable-background:new 0 0 1024 1024;" xml:space="preserve">
<style type="text/css">
	.st0{font-family:'HannotateSC-W7-GBpc-EUC-H';}
	.st1{font-size:107.5843px;}
</style>
<g transform="translate(0.000000,1024.000000) scale(0.100000,-0.100000)">
	<path d="M550.6,5104.1L545.1,78h515.1h513.2l-3.7,4355.3l-5.5,4357.1l-82.5,89.8c-91.7,99-218.1,258.5-357.4,449.1
		c-49.5,67.8-174.1,234.6-276.8,366.6c-172.3,227.3-317.1,445.4-232.8,353.8c18.3-22,165-154,326.3-295.1
		c161.3-143,372.1-337.3,467.4-432.6c95.3-95.3,198-188.8,229.1-209c51.3-33,122.8-34.8,1988.8-44l1933.8-11l192.5-49.5
		c344.6-89.8,496.7-143,707.5-242c577.4-271.3,1054-713,1374.8-1272.1c306.1-535.2,449.1-1244.6,395.9-1959.5
		c-45.8-610.4-207.1-1074.2-524.2-1506.7c-273.1-372.1-669.1-705.7-1083.3-912.8c-161.3-80.7-548.1-214.5-705.7-243.8
		c-55-11-482.1-23.8-945.8-29.3c-465.6-5.5-854.2-14.7-865.2-22c-14.7-9.2-12.8-71.5,5.5-212.6c12.8-111.8,34.8-313.4,45.8-449.1
		s22-264,23.8-284.1c3.7-36.7,18.3-36.7,700.2-42.2c403.3-3.7,808.4,3.7,962.3,14.7c586.6,45.8,1213.5,275,1759.7,641.6
		c232.8,155.8,386.8,293.3,595.7,531.6c247.5,280.5,425.3,529.7,610.4,852.4c102.6,179.6,273.1,615.9,335.4,856
		c99,394.1,146.6,1015.5,110,1435.3c-89.8,986.2-320.8,1609.4-868.9,2340.8c-570.1,762.5-1482.9,1328.9-2463.6,1528.7
		c-504.1,100.8-414.3,99-2984.2,99H556.1L550.6,5104.1z"/>
	<path d="M3241.5,8189.1c-115.5-7.3-331.8-14.7-480.3-16.5c-249.3-1.8-269.5-3.7-258.5-33c11-29.3,7.3-29.3-27.5,1.8
		c-22,20.2-44,31.2-47.7,27.5s-11-617.7-16.5-1365.6l172.3-2142.8l0,0c850.5,25.7,1318.5,15.5,639.6,21.1
		c-10.4,0.1,203.5,1060.4,207.2,1483.8c3.7,850.5,9.2,810.2-119.1,920.2c-38.5,34.8-126.5,137.5-196.1,229.1
		c-69.7,93.5-188.8,242-265.8,333.6c-77,89.8-139.3,172.3-139.3,183.3c1.8,9.2,20.2-3.7,42.2-31.2c22-25.7,84.3-80.7,137.5-119.1
		c157.6-119.1,487.6-436.3,526.1-505.9l34.8-66l879.9,3.7l881.7,3.7l174.1-51.3c430.8-128.3,698.4-329.9,870.7-654.4
		c214.5-410.6,132-1015.5-181.5-1343.6c-168.6-172.3-348.3-275-634.2-355.6c-141.1-40.3-2311.4-49.5-2648.7-12.8
		c-307.9,34.8-302.4,36.7-209-38.5c115.5-89.8,511.4-478.4,593.9-582.9c38.5-49.5,104.5-106.3,144.8-126.5
		c42.2-22,130.1-91.7,198-155.8l121-117.3l923.8,7.3c863.4,7.3,933,9.2,1099.8,45.8c412.4,93.5,1153.6-550,1357-374
		c157.6,137.5,25.1,1263,50.7,1345.5c12.8,36.7,53.2,117.3,91.7,177.8c159.5,249.3,253,755.2,218.1,1176.8
		c-18.3,243.8-102.6,581.1-188.8,760.7c-155.8,328.1-412.4,637.9-716.7,865.2c-397.8,300.6-911,469.3-1528.7,505.9
		C4625.4,8209.3,3560.4,8207.4,3241.5,8189.1z"/>
	<path d="M2392.8,3945.6c7.3-342.8,14.7-870.7,14.7-1173.1c1.8-302.4,3.7-1032,5.5-1622.2L2416.6,78l507.7,5.5L3434,89l-3.7,1625.9
		c-5.5,1578.2-11,1763.4-60.5,1763.4c-9.2,0-82.5,77-159.5,170.5c-209,251.1-505.9,584.7-680.1,764.4l-152.1,155.8L2392.8,3945.6z"
		/>
</g>
<text transform="matrix(1 0 0 1 414.4873 1000.7852)" class="st0 st1">P   A   R  A</text>
</svg>
